<?xml version="1.0" encoding="UTF-8"?>
<svg width="35px" height="35px" viewBox="0 0 35 35" version="1.1" xmlns="http://www.w3.org/2000/svg" xmlns:xlink="http://www.w3.org/1999/xlink">
    <!-- Generator: Sketch 53.1 (72631) - https://sketchapp.com -->
    <title>picto-twitter</title>
    <desc>Created with Sketch.</desc>
    <g id="Symbols" stroke="none" stroke-width="1" fill="none" fill-rule="evenodd">
        <g id="Footer-Page1" transform="translate(-1099.000000, 1.000000)">
            <g id="Footer">
                <g id="Social-networks" transform="translate(934.000000, 0.000000)">
                    <g id="picto-twitter" transform="translate(166.000000, 0.000000)">
                        <circle id="Oval" stroke="#495867" stroke-width="2" fill-rule="nonzero" cx="16.5" cy="16.5" r="16.5"></circle>
                        <g id="twitter-logo" transform="translate(8.555556, 11.000000)" fill="#495867">
                            <path d="M14.0886503,5.43379935 C14.9810305,5.35159093 15.5863433,4.89859901 15.8192923,4.2839539 C15.4973897,4.50475756 14.4981397,4.74548428 13.9462802,4.51622466 C13.9192395,4.37144214 13.8890219,4.23391937 13.8593584,4.10976114 C13.4388607,2.38565294 11.9991279,0.99664822 10.4905743,1.16444745 C10.6126268,1.10942184 10.7364156,1.0581911 10.859835,1.01219893 C11.0258842,0.945788719 12.0001253,0.768791057 11.8467099,0.384808014 C11.7174169,0.0470646312 10.5271088,0.640054235 10.3029886,0.717560319 C10.5988479,0.593319592 11.0881295,0.379610693 11.1405486,0 C10.6872843,0.0694213622 10.2423317,0.308704382 9.89852322,0.656636165 C10.0226445,0.507440046 10.1168067,0.3256163 10.1367917,0.129933031 C8.92786536,0.992317119 8.22166708,2.73094482 7.65015514,4.41747556 C7.20139766,3.93185601 6.80365549,3.54944042 6.44684379,3.33709272 C5.4458575,2.73770959 4.2490108,2.11233985 2.37023595,1.33356663 C2.31257128,2.02765651 2.67765773,2.95055226 3.72965935,3.5642899 C3.50173428,3.53021858 3.08493064,3.60623971 2.75157638,3.6953779 C2.88733401,4.4905268 3.33069813,5.14563676 4.53098033,5.46242587 C3.9824456,5.50284948 3.6989615,5.64222843 3.44203786,5.94264185 C3.69186885,6.49566158 4.30150375,7.14652294 5.39816686,7.01291879 C4.17889706,7.5997211 4.90101686,8.68641498 5.89313735,8.5243493 C4.20065522,10.4763559 1.53226964,10.3328933 0,8.70023325 C4.00065744,14.7873689 12.6971622,12.3001619 13.9931582,6.43708859 C14.9641485,6.44632828 15.5349586,6.06152026 15.8888889,5.6372786 C15.3294566,5.74328746 14.5186049,5.63373123 14.0886503,5.43379935 Z" id="Twitter__x28_alt_x29_"></path>
                        </g>
                    </g>
                </g>
            </g>
        </g>
    </g>
</svg>